<?xml version="1.0" encoding="UTF-8"?><svg xmlns="http://www.w3.org/2000/svg" xmlns:xlink="http://www.w3.org/1999/xlink" version="1.1" baseProfile="basic" id="Layer_1" x="0px" y="0px" viewBox="0 0 160 240" xml:space="preserve"><path opacity="0.2" d="M104.2 229.8c-19.9 13.1-24.4-.8-37.6-6.2-15.2-6.3-27.5-9.3-19.8-18.3s21.3-10.2 34.2-.4c9.5 7.2 47.4 9 23.2 24.9z"/><path fill="#825012" d="M58.8 192.8c.1 2-.8 6.2-3.4 8-2.7 1.8-8.3 3.2-9.6 6.5-1.3 3.3-.4 6.5 3.2 6.9 3.6.4 8.8-1.3 11.7-3.4 2.9-2.2 5-4.2 5-4.2l1.5 1.1s5.9-3.2 6.1-3.8c.3-.6-.9-8.5-.8-8.8.1-.3 0-2.3 0-2.3H58.8z"/><path opacity="0.5" d="M55.6 211.1c-4 1.9-8.9 1.3-10.3-1.6-.2 2.4.9 4.4 3.7 4.7 3.6.4 8.8-1.3 11.7-3.4 2.9-2.2 5-4.2 5-4.2l1.5 1.1s5.9-3.2 6.1-3.8c.1-.3-.1-2.7-.4-4.8-1 .8-2.3 1.9-3.8 2.9-3.7 2.6-8.8 7-13.5 9.1z"/><path fill="#825012" d="M92.5 214.2c-1.1 3.4-6.1 7.4-8 10.3-1.9 2.9-2.8 8.3 1.5 9.6 4.3 1.3 10.1-.9 13.4-4.2s4.2-5.4 4.2-5.4l1.9.4 4.2-4.2s-.6-5-.8-6.5c-.1-1.5-7.6-3.8-7.6-3.8l-8.8 3.8z"/><path opacity="0.5" d="M99.3 229.9c3.3-3.3 4.2-5.4 4.2-5.4l1.9.4 4.2-4.2-.4-3.6c-3.1 1.8-6.5 6-8.7 8.9-2.3 3.1-4.5 4.9-10.7 5.7-4.1.6-5.9-.8-6.9-3.2-.3 2.4.4 4.7 3 5.5 4.4 1.4 10.1-.8 13.4-4.1z"/><path fill="#FBD7C7" d="M59.2 92.5c-.4 1-3 4.4-3.1 5.5s-.4 5.9-.1 7 .7 5.8 1.3 6c.6.2 2.4-1.8 2.4-2.3s-.6-2-.1-3.1c.5-1 3.3-6.7 3.9-7.5s.2-6.6.2-6.6l-.6-1.5-3.7.9-.2 1.6z"/><path fill="#CC291F" d="M61.1 91.1l-1.9.4-.4-2.3s-1.4-.8-1.1-2.7c.3-1.9.8-15.2 1.5-18.4S61 58 61.1 56.3c.1-1.7 1.1-8.5 3.1-9.9 1.9-1.4 11.2-2.3 18.4 0 7.2 2.3 13.6 4.4 15.3 5s8.7 3.6 12.6 10.7c4 7.1 14.4 22.7 14.9 23.7s.8 4.5-2.3 7.6c-3.1 3.2-9.7 11.9-12.6 14.1-2.9 2.2-5.7 2.3-5.7 2.3l-2.3 2.3-5.4-5.7 2.3-1.9s-1-3.4.4-4.6c1.4-1.1 11.2-11 11.1-11.5-.1-.4-5.2-5.7-6.1-7.3-1-1.5-3.4-4.2-3.4-4.2s-2.6 5.3-3.4 8c-.8 2.7-.4 16.4-.4 16.4l-1.1 11.5s-16.1 7.5-22.9 5.4c-6.8-2.2-13.4-9.6-13.4-9.6l.9-17.5z"/><path fill="#06547A" d="M56.5 197.4s6.8 3.1 11.1 3.1 7.4-1 7.6-2.3.5-7.8 1.5-12.6 2.4-11.7 1.9-15.7-.6-10.7-.4-12.6c.3-1.9.8-8 .8-8s2 13.1 3.8 15.7c1.8 2.5 4.6 14.7 5 19.9.4 5.2 1.9 18.2 1.9 22.2s.8 6.9.8 6.9 6.6 3.3 9.6 3.4c2.9.1 9.7-.5 10.3-3.8.6-3.3-.9-18.2-1.9-25.6-1-7.4-5.1-24.7-6.1-33.6-1-8.9-2-27.1-2.2-33.6-.1-1.9-.6-10.6-1-15-.4-4.3-1.1-5.5-1.1-5.5s-2.1 1.2-4.5 1.7c-4.5 1-8 .8-8 .8s-.1-11.6.4-15.8c.5-4.2 1.9-10 1.9-10l-1.8-.8s2.8-8.8 5.6-13.8c3.6-6.3 8.4-10.3 8.4-10.3l-4.3-1.8s-5.2 4.6-8.3 10.6c-1.8 3.4-5.7 13.8-5.7 13.8l-15.7-4.6s.6-8.4 1.1-11.4c.9-6.2 3.6-14.2 3.6-14.2l-4.2.8s-2 4.1-3.2 12.3c-.8 4.6-1.5 11.4-1.5 11.4l-.7-.1s-.7 16.8-.8 22.6c-.1 5.9-.8 13.5-1.1 17.6s-1.7 19.6-1.5 28.7.9 12.9.8 19.9c-.1 7-1.8 18.7-1.5 25.6.1 6.9-1.1 13.5-.6 14.1z"/><path fill="#FBD7C7" d="M99.3 105.9s-.6.9-2.5 1.1c-1.9.2-3.9-.2-5.8 1.1s-4.7 3.4-6.9 4c-2.2.5-3.9 2.9-3.6 4.4s5.4 4.7 9.4 3.6 7.1-2.6 8.7-4c1.6-1.4 3-4.7 4-4.7 1-.1-3.3-5.5-3.3-5.5z"/><path fill="#CC291F" d="M99.7 99.9c-1.4 1.1-.4 4.6-.4 4.6l-2.3 1.9 5.4 5.7 2.3-2.3s2.9-.1 5.7-2.3c1.1-.9 2.9-2.8 4.8-5l-6.5-11.6c-3 3.2-8 8.2-9 9z"/><path fill="#825012" d="M58 27.2c0-.8 3.9-.3 6.1-.4 2.7-.2 4.6-3.9 6.1-5.5s3.7-5.9 7.8-5.4 7.3 5.4 10 6.9 3.5 2.9 3.3 5.4-.4 5.5-.4 5.5-3.3-5.3-8.7-4.1C71.7 32 58 27.2 58 27.2z"/><path fill="#825012" d="M57.8 27c-1.6.6 4.4 11.5 10 13.3s20.4 5.3 23.7 5 5.5-2.4 4.9-3.6-.4-.1-2.5-3.3-1.9-9.2-10.5-9.1-9.9.7-14.3 0-8.9-3.2-11.3-2.3z"/><path opacity="0.2" d="M57.8 27c-1.6.6 4.4 11.5 10 13.3s20.4 5.3 23.7 5 5.5-2.4 4.9-3.6-.4-.1-2.5-3.3-1.9-9.2-10.5-9.1-9.9.7-14.3 0-8.9-3.2-11.3-2.3z"/><path fill="#FBD7C7" d="M87.1 39.1v-.6c-.1-.5-.6-1.3-2.3-1.3-2.4.1-3.3 3.6-3.3 3.6-.3.1-1.1-.4-1.7-1.7-.6-1.3-1.9-5.2-2.3-6.5-.4-1.3-3.2-.5-5-.8-1.4-.2-4.3-.4-5.3-2.2H67c-1.1 2.6-1.5 5.4-1.4 7.6.4 3.8.1 12.7 2.4 13.8s5.4 0 5.4 0 .4.3 0 1.9c-.4 1.6-.4 10.7-.4 10.7s7-7.5 9.6-9.2c2.6-1.7 6.3-5.1 6.1-5.7s-1.9-1.2-2.3-3.1c-.4-1.8-.2-3.1-.2-3.1s.9-2.1.9-3.4z"/><path fill="#762C07" d="M72.6 31.9c1.8.3 4.6-.6 5 .8.4 1.3 1.7 5.2 2.3 6.5.6 1.3 1.4 1.8 1.7 1.7 0 0 .9-3.5 3.3-3.6 1.7-.1 2.2.8 2.3 1.3.1.2.1.4.1.4s1.2-2.4 1.8-5.5c-.2-.3-.3-.5-.6-.7-1.5-1-2.2-1.8-4.4-2-2.2-.2-3.7-.7-8.1-.4-3.2.2-6.5-.4-8.6-.7.8 1.8 3.7 2 5.2 2.2z"/><metadata><rdf:RDF xmlns:rdf="http://www.w3.org/1999/02/22-rdf-syntax-ns#" xmlns:rdfs="http://www.w3.org/2000/01/rdf-schema#" xmlns:dc="http://purl.org/dc/elements/1.1/"><rdf:Description about="https://iconscout.com/legal#licenses" dc:title="farmer" dc:description="farmer" dc:publisher="Iconscout" dc:date="2017-09-20" dc:format="image/svg+xml" dc:language="en"><dc:creator><rdf:Bag><rdf:li>Icograms</rdf:li></rdf:Bag></dc:creator></rdf:Description></rdf:RDF></metadata></svg>